<svg xmlns="http://www.w3.org/2000/svg" version="1.1" xmlns:xlink="http://www.w3.org/1999/xlink" xmlns:svgjs="http://svgjs.dev/svgjs" width="1500" height="977" viewBox="0 0 1500 977"><g transform="matrix(1,0,0,1,-0.906984788019372,-0.7917316901576328)"><svg viewBox="0 0 396 258" data-background-color="#b5ffa8" preserveAspectRatio="xMidYMid meet" height="977" width="1500" xmlns="http://www.w3.org/2000/svg" xmlns:xlink="http://www.w3.org/1999/xlink"><g id="tight-bounds" transform="matrix(1,0,0,1,0.24055601596296583,0.20907551285637282)"><svg viewBox="0 0 395.52 257.58184897428725" height="257.58184897428725" width="395.52"><g><svg viewBox="0 0 395.52 257.58184897428725" height="257.58184897428725" width="395.52"><g transform="matrix(1,0,0,1,0,131.52911168485414)"><svg viewBox="0 0 395.52 126.0527372894331" height="126.0527372894331" width="395.52"><g id="textblocktransform"><svg viewBox="0 0 395.52 126.0527372894331" height="126.0527372894331" width="395.52" id="textblock"><g><svg viewBox="0 0 395.52 89.39964774695221" height="89.39964774695221" width="395.52"><g transform="matrix(1,0,0,1,0,0)"><svg width="395.52" viewBox="1.2756364366467856 -20.77368977699403 213.78199777771192 48.321470488273405" height="89.39964774695221" data-palette-color="#4f9dff"><path d="M22.463 6.09v0c0.614 0.155 0.724 1.011 0.331 2.569-0.395 1.564-1.04 2.893-1.935 3.988-0.9 1.086-1.85 1.867-2.85 2.343-1.005 0.468-2.082 0.784-3.231 0.948v0c-3.871 0.652-7.117-0.201-9.739-2.561v0c-1.326-1.201-2.255-2.467-2.785-3.797-0.531-1.33-0.842-2.836-0.933-4.516v0c-0.157-2.536 0.088-5.09 0.738-7.663 0.649-2.573 1.503-4.918 2.56-7.037 1.053-2.127 2.339-4.078 3.86-5.853 1.522-1.782 3.367-3.056 5.534-3.822 2.168-0.773 4.474-0.851 6.917-0.234v0c1.041 0.263 2.08 0.707 3.119 1.334 1.038 0.627 1.852 1.282 2.443 1.968 0.584 0.684 1.022 1.616 1.315 2.797 0.293 1.181 0.263 2.473-0.091 3.875v0c-0.379 1.5-1.078 2.76-2.1 3.781v0c-0.47 0.473-1.116 0.839-1.938 1.099-0.828 0.258-1.731 0.264-2.706 0.018v0c-1.5-0.379-2.391-1.315-2.674-2.809v0c-0.126-0.589-0.112-1.19 0.043-1.805 0.157-0.621 0.461-0.925 0.912-0.915v0c0.485-0.015 0.999-0.267 1.541-0.755 0.535-0.484 0.901-1.117 1.099-1.899v0c0.157-0.621 0.131-1.201-0.076-1.742v0c-0.417-0.965-1.21-1.595-2.38-1.89-1.176-0.297-2.378-0.03-3.606 0.802-1.234 0.83-2.299 1.998-3.195 3.505v0c-1.797 3.005-3.04 5.875-3.731 8.609v0c-0.69 2.734-0.873 5.026-0.549 6.874v0c0.393 2.286 1.204 3.945 2.436 4.978v0c0.771 0.649 1.726 1.116 2.863 1.403v0c1.92 0.485 3.863 0.057 5.831-1.281v0c0.826-0.52 1.568-1.199 2.227-2.037v0c0.235-0.25 0.485-0.342 0.75-0.275zM36.375-2.276v0l-0.126 0.699 8.778 1.584 0.02-0.108c0.175-0.781 0.371-1.776 0.589-2.983 0.218-1.207 0.393-2.27 0.524-3.188 0.131-0.911 0.233-1.685 0.308-2.322 0.08-0.629 0.139-1.181 0.176-1.655 0.03-0.469 0.052-0.831 0.064-1.086 0.012-0.255 0.036-0.481 0.072-0.678 0.036-0.197 0.261-0.397 0.677-0.599v0c1.772-0.771 3.635-0.98 5.59-0.627v0c1.22 0.22 1.791 0.547 1.714 0.979v0c-0.006 0.033-0.071 0.207-0.197 0.524v0c-1.196 3.022-2.377 7.297-3.543 12.824v0c-1.1 5.533-1.685 8.496-1.757 8.89v0c-0.925 5.124-1.27 8.73-1.037 10.818v0c0.058 0.281 0.07 0.514 0.036 0.697-0.032 0.177-0.204 0.36-0.515 0.547v0c-1.364 0.574-3.02 0.685-4.968 0.333v0c-1.26-0.227-1.894-0.785-1.903-1.674v0c-0.014-0.484 0.066-1.211 0.241-2.182 0.176-0.978 0.505-2.463 0.987-4.456 0.475-1.994 1.199-5.498 2.171-10.511v0l-8.67-1.565c-1.359 7.532-2.08 12.862-2.164 15.99v0c-0.143 0.794-1.022 1.309-2.636 1.547-1.614 0.237-2.917 0.266-3.908 0.087-0.991-0.179-1.459-0.419-1.404-0.721v0c0.036-0.197 0.129-0.434 0.281-0.711v0c0.881-1.277 2.203-6.804 3.967-16.579v0l0.117-0.65-2.923-0.527c-0.262-0.047-0.376-0.169-0.34-0.366v0c0.012-0.066 0.124-0.31 0.335-0.732 0.212-0.422 0.611-0.889 1.198-1.4 0.585-0.504 1.177-0.702 1.774-0.594v0l0.541 0.097c1.176-6.515 1.472-10.336 0.89-11.464v0l-0.144-0.331c-0.167-0.2-0.228-0.424-0.183-0.673 0.045-0.249 0.263-0.423 0.653-0.522v0c0.552-0.205 1.491-0.341 2.817-0.407 1.321-0.073 2.496-0.017 3.526 0.169 1.023 0.185 1.493 0.51 1.409 0.976v0l-0.026 0.148c-1.021 3.366-2.024 7.5-3.011 12.402zM74.55 19.201v0c-0.255 2.333-1.187 3.985-2.796 4.956-1.609 0.977-3.749 1.32-6.42 1.028v0c-4.274-0.468-7.267-2.234-8.977-5.298-1.704-3.057-2.306-6.872-1.806-11.445v0c0.08-0.729 0.23-1.792 0.45-3.19v0l-2.803-0.306c-0.272-0.03-0.397-0.144-0.375-0.343v0c0.062-0.57 0.422-1.225 1.08-1.964 0.657-0.733 1.317-1.063 1.979-0.991v0l0.955 0.105c0.701-2.358 1.642-4.401 2.823-6.13 1.188-1.728 2.377-3.033 3.567-3.915 1.196-0.882 2.477-1.553 3.842-2.014v0c2.184-0.774 4.409-1.037 6.675-0.789 2.273 0.249 3.651 0.772 4.134 1.569v0c0.225 0.394 0.284 1.084 0.176 2.072-0.107 0.981-0.277 1.459-0.509 1.433v0c-0.033-0.004-0.175-0.086-0.426-0.248v0c-0.825-0.493-1.886-0.81-3.185-0.952v0c-2.843-0.311-5.166 0.447-6.969 2.275-1.803 1.828-3.145 4.283-4.025 7.366v0c2.542 0.245 5.983 0.604 10.324 1.08v0c0.331 0.036 0.484 0.17 0.459 0.402v0c-0.058 0.53-0.397 1.177-1.017 1.941-0.626 0.756-1.274 1.098-1.943 1.025v0l-8.609-0.942c-0.077 0.401-0.19 1.277-0.338 2.629-0.147 1.345-0.06 2.79 0.26 4.334 0.321 1.537 1.085 2.895 2.291 4.073 1.206 1.178 2.859 1.882 4.96 2.112 2.107 0.231 3.928-0.043 5.461-0.821v0c0.18-0.114 0.337-0.164 0.469-0.15v0c0.272 0.03 0.369 0.396 0.293 1.098zM99.087 15.146v0c0.633 0.031 0.91 0.848 0.833 2.453-0.078 1.611-0.447 3.042-1.109 4.291-0.667 1.243-1.444 2.196-2.33 2.861-0.893 0.658-1.886 1.18-2.979 1.569v0c-3.665 1.405-7.016 1.21-10.054-0.586v0c-1.538-0.915-2.698-1.972-3.481-3.171-0.783-1.199-1.386-2.613-1.807-4.242v0c-0.656-2.454-0.92-5.007-0.792-7.657 0.128-2.65 0.501-5.118 1.118-7.405 0.611-2.293 1.487-4.46 2.626-6.501 1.14-2.047 2.696-3.661 4.669-4.841 1.973-1.186 4.218-1.719 6.735-1.597v0c1.072 0.052 2.179 0.282 3.321 0.691 1.142 0.409 2.069 0.891 2.783 1.446 0.707 0.555 1.322 1.382 1.843 2.482 0.521 1.1 0.747 2.372 0.676 3.817v0c-0.075 1.545-0.511 2.919-1.31 4.121v0c-0.367 0.556-0.928 1.043-1.682 1.461-0.761 0.417-1.644 0.601-2.65 0.553v0c-1.545-0.075-2.604-0.816-3.176-2.226v0c-0.24-0.552-0.345-1.145-0.315-1.777 0.031-0.639 0.268-0.998 0.713-1.077v0c0.473-0.111 0.927-0.459 1.362-1.046 0.428-0.58 0.662-1.273 0.701-2.078v0c0.031-0.639-0.109-1.203-0.419-1.692v0c-0.599-0.863-1.501-1.324-2.707-1.382-1.212-0.058-2.337 0.441-3.376 1.499-1.046 1.058-1.858 2.413-2.439 4.067v0c-1.167 3.301-1.819 6.36-1.954 9.176v0c-0.136 2.817 0.138 5.099 0.82 6.848v0c0.837 2.163 1.961 3.629 3.372 4.397v0c0.884 0.483 1.913 0.753 3.085 0.81v0c1.978 0.095 3.799-0.708 5.462-2.409v0c0.707-0.673 1.3-1.486 1.78-2.438v0c0.181-0.292 0.408-0.431 0.681-0.417zM115.865-4.405c0.852-1.123 1.713-2.173 2.582-3.149 0.875-0.97 1.597-1.58 2.166-1.831 0.562-0.244 1.716-0.382 3.462-0.415 1.746-0.033 2.624 0.171 2.632 0.61v0c0.003 0.167-0.18 0.353-0.549 0.561-0.363 0.207-0.86 0.536-1.492 0.988-0.625 0.445-1.936 1.66-3.932 3.644-1.996 1.984-3.993 4.306-5.991 6.964v0c-0.065 0.068-0.097 0.162-0.094 0.282 0.002 0.113 0.097 0.188 0.284 0.224 0.181 0.03 0.441 0.075 0.782 0.136 0.335 0.06 0.953 0.309 1.855 0.745 0.895 0.437 1.702 0.992 2.421 1.665 0.719 0.673 1.419 1.717 2.1 3.131 0.68 1.414 1.082 2.75 1.205 4.008 0.124 1.258 0.245 2.389 0.364 3.394 0.119 1.005 0.406 2.443 0.861 4.315 0.455 1.872 0.973 2.989 1.553 3.351v0c0.169 0.13 0.256 0.295 0.259 0.495v0c0.01 0.533-0.717 1.04-2.182 1.522-1.471 0.481-2.787 0.732-3.946 0.754-1.16 0.022-1.832-0.436-2.016-1.373v0c-0.186-1.003-0.347-3.401-0.485-7.192v0l-0.038-2.01c-0.066-3.526-0.617-6.069-1.653-7.63v0c-0.899-1.357-1.703-2.112-2.413-2.265v0c-0.536-0.157-0.821-0.235-0.855-0.234v0l-0.555 0.26c-0.789 0.955-1.408 1.873-1.859 2.756-0.457 0.882-0.698 1.523-0.724 1.924v0l-0.088 0.651c0.089 4.739 0.368 8.781 0.838 12.127v0c0.074 0.405 0.112 0.641 0.113 0.708v0c0.014 0.733-0.754 1.384-2.303 1.953-1.556 0.569-2.828 0.863-3.815 0.882-0.993 0.019-1.493-0.125-1.498-0.432v0c-0.004-0.2 0.042-0.451 0.136-0.752v0c0.326-0.746 0.524-3.194 0.592-7.343 0.076-4.149 0.081-7.926 0.018-11.332-0.064-3.406-0.182-6.168-0.356-8.285v0c-0.26-3.182-0.632-5.089-1.117-5.72v0c-0.375-0.46-0.564-0.756-0.567-0.89v0c-0.009-0.473 0.846-0.943 2.564-1.408 1.725-0.472 3.114-0.719 4.167-0.738 1.06-0.02 1.594 0.207 1.603 0.68v0l-0.038 0.651c-0.372 3.634-0.519 7.518-0.441 11.65v0c0.006 0.333 0.086 0.498 0.239 0.496 0.153-0.003 0.327-0.156 0.522-0.46 0.194-0.31 0.48-0.736 0.856-1.277 0.376-0.547 1.065-1.534 2.065-2.959 0.993-1.432 1.916-2.71 2.768-3.832zM146.69 3.274v0c0.133-0.014 0.398 0.092 0.798 0.318 0.393 0.227 0.791 0.319 1.195 0.277v0l0.05-0.005c1.134-0.119 1.988-0.665 2.563-1.637 0.568-0.971 0.838-1.908 0.811-2.811v0l0.016-1.369c-0.134-1.273-0.441-2.347-0.921-3.221-0.481-0.881-0.998-1.521-1.55-1.919-0.545-0.399-1.164-0.679-1.858-0.84v0c-0.87-0.244-1.763-0.317-2.678-0.221-0.922 0.097-1.658 0.265-2.209 0.504-0.544 0.245-0.84 0.454-0.889 0.626v0l-0.019 0.304c0.169 4.541 0.441 8.591 0.816 12.151 0.374 3.554 0.755 6.611 1.145 9.171 0.39 2.56 0.714 4.527 0.972 5.9 0.265 1.373 0.405 2.126 0.419 2.259v0c0.088 0.835-0.578 1.579-1.998 2.231-1.412 0.658-2.838 1.063-4.276 1.214v0c-0.67 0.07-1.022-0.063-1.058-0.402v0c-0.01-0.099 0.018-0.337 0.086-0.713v0c0.475-1.538 0.072-8.4-1.21-20.586v0c-0.755-7.18-1.671-11.237-2.747-12.169v0c-0.22-0.178-0.341-0.376-0.365-0.596-0.023-0.219 0.194-0.486 0.65-0.802 0.456-0.316 1.783-0.767 3.98-1.354 2.204-0.587 4.559-1.012 7.066-1.275v0c3.938-0.414 7.011 0.342 9.217 2.268 2.214 1.932 3.476 4.374 3.787 7.324 0.311 2.957-0.228 5.605-1.618 7.943-1.389 2.345-3.386 3.654-5.992 3.928v0c-0.835 0.088-1.687 0.023-2.555-0.194v0c-1.734-0.421-2.7-1.583-2.9-3.486v0c-0.043-0.404 0.033-0.962 0.226-1.672 0.2-0.711 0.549-1.093 1.046-1.146zM179.228 3.871v0l-1.057-5.907c-0.998-5.856-1.861-9.709-2.59-11.559v0c-0.105-0.219-0.169-0.394-0.191-0.525v0c-0.096-0.565 0.383-1.144 1.439-1.737 1.063-0.587 1.923-0.937 2.581-1.048 0.664-0.113 1.029 0.027 1.096 0.422v0c0.007 0.039 0.005 0.229-0.004 0.568v0c-0.069 4.198 0.653 10.733 2.165 19.605v0c1.033 6.059 2.123 10.35 3.27 12.874v0c0.205 0.411 0.311 0.633 0.316 0.666v0c0.119 0.697-0.546 1.398-1.994 2.105-1.442 0.706-2.478 1.112-3.109 1.22v0c-0.992 0.169-1.709 0.051-2.15-0.354v0c-0.887-0.802-2.515-3.206-4.882-7.212-2.373-4.005-4.487-7.756-6.341-11.254v0l-2.831-5.239c-0.1-0.152-0.2-0.22-0.298-0.203v0c-0.131 0.022-0.26 0.163-0.385 0.421v0c0.36 3.104 0.803 6.197 1.328 9.279 0.524 3.076 0.951 5.438 1.279 7.085 0.335 1.647 0.608 2.892 0.819 3.736 0.212 0.85 0.395 1.525 0.549 2.027 0.154 0.508 0.277 0.872 0.369 1.093 0.085 0.222 0.136 0.383 0.153 0.481v0c0.108 0.631-0.354 1.213-1.386 1.748-1.032 0.534-1.984 0.876-2.859 1.025-0.881 0.15-1.355 0.025-1.423-0.376v0c-0.034-0.197-0.026-0.452 0.022-0.765 0.047-0.319 0.097-0.72 0.15-1.202v0c0.138-1.214 0.012-3.363-0.379-6.448-0.391-3.085-0.92-6.589-1.589-10.513-0.669-3.923-1.205-6.77-1.609-8.541v0c-0.661-2.883-1.292-4.784-1.895-5.702v0c-0.115-0.082-0.187-0.205-0.215-0.369v0c-0.091-0.532 0.699-1.194 2.37-1.987 1.67-0.799 2.994-1.281 3.973-1.448 0.973-0.166 1.544-0.246 1.714-0.242v0c0.461-0.112 0.789 0.106 0.984 0.654v0c1.552 3.313 3.596 7.171 6.132 11.574 2.543 4.402 4.702 7.726 6.478 9.974v0c0.193 0.143 0.343 0.205 0.448 0.187v0c0.164-0.028 0.015-1.399-0.448-4.113zM202.753-5.144l-0.703 0.327c-0.332 0.184-0.484 0.335-0.455 0.452 0.029 0.117 0.47 0.224 1.325 0.323 0.848 0.101 1.702 0.375 2.56 0.824 0.852 0.45 1.531 1.08 2.038 1.889v0c0.787 1.221 1.368 2.599 1.745 4.133 0.376 1.535 0.799 2.769 1.269 3.705 0.471 0.942 0.935 1.631 1.393 2.067v0c0.921 0.955 1.691 1.493 2.311 1.616v0l0.388 0.111c0.232 0.08 0.373 0.218 0.42 0.412v0c0.121 0.492-0.573 1.122-2.079 1.89-1.507 0.768-2.701 1.26-3.582 1.475v0c-1.729 0.424-2.999 0.001-3.812-1.268-0.813-1.27-1.631-3.585-2.455-6.945v0l-0.66-2.69c-0.696-2.836-1.988-4.438-3.876-4.805v0c-0.725-0.131-1.545-0.084-2.458 0.139v0l-0.048 0.012c-0.291 0.071-0.508-0.181-0.649-0.757-0.14-0.57-0.11-1.188 0.09-1.855 0.199-0.673 0.427-1.042 0.687-1.106v0c1.075-0.264 1.954-0.695 2.637-1.295 0.683-0.6 1.131-1.238 1.343-1.915v0c0.448-1.421 0.596-2.58 0.444-3.476v0l-0.154-0.631c-0.297-1.211-0.741-2.183-1.334-2.917-0.598-0.732-1.229-1.191-1.893-1.378v0c-1.105-0.278-2.162-0.293-3.172-0.046-1.01 0.248-1.822 0.533-2.436 0.855v0c-0.849 0.483-1.238 0.87-1.167 1.161v0c0.75 4.346 1.611 8.501 2.583 12.464 0.972 3.963 1.774 6.982 2.407 9.057 0.633 2.076 1.161 3.741 1.586 4.996 0.433 1.26 0.677 2.006 0.735 2.24v0c0.103 0.421 0.061 0.74-0.126 0.957v0c-1.035 1.572-2.987 2.71-5.855 3.413v0c-0.486 0.119-0.769 0.014-0.85-0.316v0c-0.024-0.097-0.031-0.336-0.021-0.716v0c0.14-0.83-0.208-3.268-1.042-7.312-0.842-4.049-1.669-7.728-2.481-11.037-0.812-3.309-1.535-5.976-2.169-8.004v0c-0.953-3.047-1.736-4.825-2.348-5.334v0c-0.467-0.366-0.723-0.639-0.768-0.821-0.044-0.181 0.088-0.413 0.396-0.694v0c1.852-1.491 5.516-2.908 10.994-4.251v0c4.403-1.08 7.999-0.648 10.789 1.297v0c1.507 1.079 2.513 2.648 3.019 4.706v0c0.303 1.237 0.332 2.403 0.086 3.5-0.252 1.098-0.67 1.997-1.254 2.697v0c-1.117 1.379-2.25 2.33-3.398 2.851z" opacity="1" transform="matrix(1,0,0,1,0,0)" fill="#4f9dff" class="wordmark-text-0" data-fill-palette-color="primary" id="text-0"></path></svg></g></svg></g><g transform="matrix(1,0,0,1,118.31980799999998,116.78151972405746)"><svg viewBox="0 0 158.88038400000002 9.27121756537564" height="9.27121756537564" width="158.88038400000002"><g transform="matrix(1,0,0,1,0,0)"><svg width="158.88038400000002" viewBox="2.49 -36.01 617.06 36.01" height="9.27121756537564" data-palette-color="#4f9dff"><path d="M2.49-21.19L2.49-26 8.84-26 8.84-34.01 13.65-34.01 13.65-26 22.19-26 22.19-21.19 13.65-21.19 13.65-4.81 22.19-4.81 22.19 0 13.65 0Q12.67 0 11.79-0.38 10.91-0.76 10.25-1.4 9.59-2.05 9.22-2.93 8.84-3.81 8.84-4.81L8.84-4.81 8.84-21.19 2.49-21.19ZM44.89-21.19L34.98-21.19 34.98 0 30.2 0 30.2-26 34.98-26 34.98-21.41Q35.03-22.36 35.42-23.21 35.81-24.05 36.46-24.67 37.11-25.29 37.96-25.65 38.82-26 39.79-26L39.79-26 44.89-26Q45.9-26 46.76-25.62 47.63-25.24 48.29-24.6 48.95-23.95 49.33-23.07 49.7-22.19 49.7-21.19L49.7-21.19 49.7-16.8 44.89-16.8 44.89-21.19ZM55.68-4.81L55.68-11.35Q55.68-12.35 56.06-13.22 56.44-14.09 57.09-14.75 57.73-15.41 58.61-15.78 59.49-16.16 60.47-16.16L60.47-16.16 72.87-16.16 72.87-21.19 57.17-21.19 57.17-26 72.87-26Q73.87-26 74.75-25.62 75.63-25.24 76.28-24.6 76.92-23.95 77.3-23.07 77.68-22.19 77.68-21.19L77.68-21.19 77.68 0 72.87 0 72.87-4.39Q72.8-3.49 72.38-2.69 71.97-1.88 71.32-1.28 70.67-0.68 69.84-0.34 69.01 0 68.09 0L68.09 0 60.47 0Q59.49 0 58.61-0.38 57.73-0.76 57.09-1.4 56.44-2.05 56.06-2.93 55.68-3.81 55.68-4.81L55.68-4.81ZM60.47-11.35L60.47-4.81 72.87-4.81 72.87-11.35 60.47-11.35ZM98.09 0L93.08 0 82.68-26 87.69-26 95.57-5.76 103.48-26 108.49-26 98.09 0ZM135.49-21.19L135.49-10.55 118.28-10.55 118.28-4.81 135.49-4.81 135.49 0 118.28 0Q117.3 0 116.42-0.38 115.54-0.76 114.89-1.4 114.25-2.05 113.87-2.93 113.49-3.81 113.49-4.81L113.49-4.81 113.49-21.19Q113.49-22.19 113.87-23.07 114.25-23.95 114.89-24.6 115.54-25.24 116.42-25.62 117.3-26 118.28-26L118.28-26 130.68-26Q131.68-26 132.56-25.62 133.44-25.24 134.08-24.6 134.73-23.95 135.11-23.07 135.49-22.19 135.49-21.19L135.49-21.19ZM130.68-21.19L118.28-21.19 118.28-15.36 130.68-15.36 130.68-21.19ZM143.49-36.01L148.28-36.01 148.28 0 143.49 0 143.49-36.01ZM181.67 0L176.67 0 168.27-26 173.13-26 179.28-6.4 185.02-26 189.92-26 195.66-6.4 201.81-26 206.67-26 198.27 0 193.27 0 187.46-19.09 181.67 0ZM211.92-26L216.73-26 216.73 0 211.92 0 211.92-26ZM211.67-31.01L211.67-36.01 216.97-36.01 216.97-31.01 211.67-31.01ZM223.46-21.19L223.46-26 229.81-26 229.81-34.01 234.62-34.01 234.62-26 243.17-26 243.17-21.19 234.62-21.19 234.62-4.81 243.17-4.81 243.17 0 234.62 0Q233.64 0 232.77-0.38 231.89-0.76 231.23-1.4 230.57-2.05 230.19-2.93 229.81-3.81 229.81-4.81L229.81-4.81 229.81-21.19 223.46-21.19ZM274.17-21.19L274.17 0 269.36 0 269.36-21.19 255.96-21.19 255.96 0 251.17 0 251.17-36.01 255.96-36.01 255.96-21.41Q256.01-22.36 256.4-23.21 256.79-24.05 257.43-24.67 258.08-25.29 258.93-25.65 259.79-26 260.77-26L260.77-26 269.36-26Q270.36-26 271.24-25.62 272.12-25.24 272.77-24.6 273.41-23.95 273.79-23.07 274.17-22.19 274.17-21.19L274.17-21.19ZM314.35-21.19L301.95-21.19 301.95-4.81 314.35-4.81 314.35-9.2 319.16-9.2 319.16-4.81Q319.16-3.81 318.78-2.93 318.4-2.05 317.76-1.4 317.11-0.76 316.23-0.38 315.35 0 314.35 0L314.35 0 301.95 0Q300.97 0 300.09-0.38 299.21-0.76 298.57-1.4 297.92-2.05 297.54-2.93 297.16-3.81 297.16-4.81L297.16-4.81 297.16-21.19Q297.16-22.19 297.54-23.07 297.92-23.95 298.57-24.6 299.21-25.24 300.09-25.62 300.97-26 301.95-26L301.95-26 314.35-26Q315.35-26 316.23-25.62 317.11-25.24 317.76-24.6 318.4-23.95 318.78-23.07 319.16-22.19 319.16-21.19L319.16-21.19 319.16-16.8 314.35-16.8 314.35-21.19ZM349.65-21.19L349.65-4.81Q349.65-3.81 349.27-2.93 348.89-2.05 348.25-1.4 347.6-0.76 346.73-0.38 345.87 0 344.86 0L344.86 0 331.95 0Q330.97 0 330.09-0.38 329.22-0.76 328.57-1.4 327.92-2.05 327.54-2.93 327.16-3.81 327.16-4.81L327.16-4.81 327.16-21.19Q327.16-22.19 327.54-23.07 327.92-23.95 328.57-24.6 329.22-25.24 330.09-25.62 330.97-26 331.95-26L331.95-26 344.86-26Q345.87-26 346.73-25.62 347.6-25.24 348.25-24.6 348.89-23.95 349.27-23.07 349.65-22.19 349.65-21.19L349.65-21.19ZM344.86-21.19L331.95-21.19 331.95-4.81 344.86-4.81 344.86-21.19ZM380.65-21.19L380.65 0 375.84 0 375.84-21.19 362.44-21.19 362.44 0 357.66 0 357.66-26 362.44-26 362.44-21.41Q362.49-22.36 362.88-23.21 363.27-24.05 363.92-24.67 364.56-25.29 365.42-25.65 366.27-26 367.25-26L367.25-26 375.84-26Q376.84-26 377.72-25.62 378.6-25.24 379.25-24.6 379.9-23.95 380.28-23.07 380.65-22.19 380.65-21.19L380.65-21.19ZM406.85-31.2L398.3-31.2 398.3-26 406.85-26 406.85-21.19 398.3-21.19 398.3 0 393.49 0 393.49-21.19 387.15-21.19 387.15-26 393.49-26 393.49-31.2Q393.49-32.2 393.87-33.07 394.25-33.94 394.91-34.59 395.57-35.25 396.45-35.63 397.33-36.01 398.3-36.01L398.3-36.01 406.85-36.01 406.85-31.2ZM413.61-26L418.42-26 418.42 0 413.61 0 413.61-26ZM413.36-31.01L413.36-36.01 418.66-36.01 418.66-31.01 413.36-31.01ZM441.36-21.19L431.45-21.19 431.45 0 426.67 0 426.67-26 431.45-26 431.45-21.41Q431.5-22.36 431.89-23.21 432.28-24.05 432.93-24.67 433.58-25.29 434.43-25.65 435.28-26 436.26-26L436.26-26 441.36-26Q442.36-26 443.23-25.62 444.1-25.24 444.76-24.6 445.42-23.95 445.79-23.07 446.17-22.19 446.17-21.19L446.17-21.19 446.17-16.8 441.36-16.8 441.36-21.19ZM483.74-21.19L472.76-21.19 472.76 0 467.95 0 467.95-21.19 456.94-21.19 456.94 0 452.15 0 452.15-26 456.94-26 456.94-21.41Q456.99-22.36 457.38-23.21 457.77-24.05 458.41-24.67 459.06-25.29 459.92-25.65 460.77-26 461.75-26L461.75-26 467.95-26Q468.9-26 469.75-25.65 470.61-25.29 471.27-24.67 471.93-24.05 472.33-23.21 472.73-22.36 472.76-21.41L472.76-21.41Q472.81-22.36 473.18-23.21 473.56-24.05 474.21-24.67 474.86-25.29 475.71-25.65 476.57-26 477.54-26L477.54-26 483.74-26Q484.75-26 485.62-25.62 486.5-25.24 487.15-24.6 487.8-23.95 488.18-23.07 488.55-22.19 488.55-21.19L488.55-21.19 488.55 0 483.74 0 483.74-21.19ZM496.56-4.81L496.56-11.35Q496.56-12.35 496.94-13.22 497.32-14.09 497.96-14.75 498.61-15.41 499.49-15.78 500.37-16.16 501.34-16.16L501.34-16.16 513.75-16.16 513.75-21.19 498.05-21.19 498.05-26 513.75-26Q514.75-26 515.63-25.62 516.51-25.24 517.15-24.6 517.8-23.95 518.18-23.07 518.56-22.19 518.56-21.19L518.56-21.19 518.56 0 513.75 0 513.75-4.39Q513.67-3.49 513.26-2.69 512.84-1.88 512.2-1.28 511.55-0.68 510.72-0.34 509.89 0 508.96 0L508.96 0 501.34 0Q500.37 0 499.49-0.38 498.61-0.76 497.96-1.4 497.32-2.05 496.94-2.93 496.56-3.81 496.56-4.81L496.56-4.81ZM501.34-11.35L501.34-4.81 513.75-4.81 513.75-11.35 501.34-11.35ZM525.05-21.19L525.05-26 531.4-26 531.4-34.01 536.2-34.01 536.2-26 544.75-26 544.75-21.19 536.2-21.19 536.2-4.81 544.75-4.81 544.75 0 536.2 0Q535.23 0 534.35-0.38 533.47-0.76 532.81-1.4 532.15-2.05 531.77-2.93 531.4-3.81 531.4-4.81L531.4-4.81 531.4-21.19 525.05-21.19ZM553-26L557.81-26 557.81 0 553 0 553-26ZM552.76-31.01L552.76-36.01 558.05-36.01 558.05-31.01 552.76-31.01ZM588.54-21.19L588.54-4.81Q588.54-3.81 588.17-2.93 587.79-2.05 587.14-1.4 586.49-0.76 585.63-0.38 584.76 0 583.76 0L583.76 0 570.84 0Q569.87 0 568.99-0.38 568.11-0.76 567.46-1.4 566.82-2.05 566.44-2.93 566.06-3.81 566.06-4.81L566.06-4.81 566.06-21.19Q566.06-22.19 566.44-23.07 566.82-23.95 567.46-24.6 568.11-25.24 568.99-25.62 569.87-26 570.84-26L570.84-26 583.76-26Q584.76-26 585.63-25.62 586.49-25.24 587.14-24.6 587.79-23.95 588.17-23.07 588.54-22.19 588.54-21.19L588.54-21.19ZM583.76-21.19L570.84-21.19 570.84-4.81 583.76-4.81 583.76-21.19ZM619.55-21.19L619.55 0 614.74 0 614.74-21.19 601.33-21.19 601.33 0 596.55 0 596.55-26 601.33-26 601.33-21.41Q601.38-22.36 601.77-23.21 602.16-24.05 602.81-24.67 603.46-25.29 604.31-25.65 605.17-26 606.14-26L606.14-26 614.74-26Q615.74-26 616.62-25.62 617.5-25.24 618.14-24.6 618.79-23.95 619.17-23.07 619.55-22.19 619.55-21.19L619.55-21.19Z" opacity="1" transform="matrix(1,0,0,1,0,0)" fill="#4f9dff" class="slogan-text-1" data-fill-palette-color="secondary" id="text-1"></path></svg></g></svg></g></svg></g></svg></g><g transform="matrix(1,0,0,1,126.78964756196504,0)"><svg viewBox="0 0 141.9407048760699 126.0527372894331" height="126.0527372894331" width="141.9407048760699"><g><svg xmlns="http://www.w3.org/2000/svg" xmlns:xlink="http://www.w3.org/1999/xlink" version="1.1" x="0" y="0" viewBox="6.326224579699586 11.189 87.40677569973556 77.62299999999999" enable-background="new 0 0 100 100" xml:space="preserve" height="126.0527372894331" width="141.9407048760699" class="icon-icon-0" data-fill-palette-color="accent" id="icon-0"><path fill="#4f9dff" d="M69.239 44.613H86.264C86.813 44.613 87.264 44.163 87.264 43.613V33.918C87.264 33.368 86.813 32.918 86.264 32.918H69.239C68.69 32.918 68.239 33.368 68.239 33.918V43.613C68.239 44.163 68.69 44.613 69.239 44.613" data-fill-palette-color="accent"></path><path fill="#4f9dff" d="M64.685 43.613V33.918C64.685 33.368 64.236 32.918 63.685 32.918H46.664C46.114 32.918 45.664 33.368 45.664 33.918V43.613C45.664 44.163 46.114 44.613 46.664 44.613H63.685C64.235 44.613 64.685 44.163 64.685 43.613" data-fill-palette-color="accent"></path><path fill="#4f9dff" d="M59.198 68.709V73.049H73.229V64.707H59.198zM63.519 66.883H68.914V70.906H63.519z" data-fill-palette-color="accent"></path><circle fill="#4f9dff" cx="66.421" cy="17.494" r="2.2" data-fill-palette-color="accent"></circle><circle fill="#4f9dff" cx="79.312" cy="58.346" r="2.1" data-fill-palette-color="accent"></circle><circle fill="#4f9dff" cx="84.208" cy="58.346" r="2.1" data-fill-palette-color="accent"></circle><circle fill="#4f9dff" cx="47.777" cy="58.346" r="2.1" data-fill-palette-color="accent"></circle><circle fill="#4f9dff" cx="52.673" cy="58.346" r="2.1" data-fill-palette-color="accent"></circle><path fill="#4f9dff" d="M90.935 25.432V20.494C90.935 19.779 90.216 18.83 88.933 18.494 85.902 17.696 79.719 16.274 72.466 15.705 71.693 13.098 69.277 11.189 66.421 11.189S61.152 13.098 60.379 15.705C53.126 16.273 46.943 17.696 43.91 18.494 42.926 18.752 42.277 19.333 42.027 19.943L42.026 19.939 41.973 20.106C41.964 20.139 41.949 20.172 41.941 20.205 41.041 22.981 32.478 47.752 10.299 58.347 7.836 59.523 8.087 61.986 8.087 61.986V81.41L8.08 81.408A1.814 1.814 0 0 0 8.08 85.034H8.087V86.804C8.087 88.036 8.462 88.802 9.445 88.802H48.29C48.333 88.804 48.375 88.812 48.419 88.812H85.088C86.356 88.812 87.465 87.962 87.793 86.738L91.645 72.379C91.73 72.111 91.776 71.826 91.776 71.531 91.776 71.232 91.716 70.949 91.63 70.677A4.79 4.79 0 0 0 93.733 66.71V29.781C93.733 27.851 92.581 26.193 90.935 25.432M62.595 15.559L62.597 15.557A4.3 4.3 0 0 1 63.787 14.113C63.896 14.027 64.005 13.941 64.123 13.866 64.301 13.751 64.488 13.649 64.684 13.562 64.758 13.529 64.836 13.505 64.913 13.476A4 4 0 0 1 65.424 13.317C65.5 13.299 65.576 13.281 65.653 13.267A4 4 0 0 1 66.422 13.189C66.685 13.189 66.94 13.221 67.19 13.267 67.267 13.281 67.342 13.299 67.419 13.317 67.594 13.359 67.765 13.413 67.931 13.476 68.007 13.505 68.086 13.529 68.161 13.562 68.356 13.649 68.542 13.751 68.721 13.866 68.839 13.942 68.949 14.028 69.059 14.114A4.3 4.3 0 0 1 70.252 15.56 4.26 4.26 0 0 1 70.731 17.495C70.731 17.874 70.667 18.235 70.575 18.585A4.3 4.3 0 0 1 69.61 20.369C69.594 20.386 69.582 20.405 69.566 20.421A4 4 0 0 1 69.202 20.76C69.129 20.822 69.057 20.885 68.98 20.942A4.3 4.3 0 0 1 68.293 21.357C68.186 21.408 68.081 21.459 67.97 21.502 67.818 21.562 67.659 21.606 67.499 21.648 67.408 21.672 67.32 21.702 67.227 21.719 66.967 21.769 66.7 21.8 66.424 21.8S65.881 21.769 65.619 21.719C65.527 21.701 65.439 21.672 65.348 21.648A4 4 0 0 1 64.877 21.502 4 4 0 0 1 64.555 21.357 4.4 4.4 0 0 1 63.869 20.942C63.791 20.884 63.719 20.821 63.646 20.759A4 4 0 0 1 63.283 20.421L63.238 20.366A4.3 4.3 0 0 1 62.277 18.588L62.275 18.584A4.3 4.3 0 0 1 62.119 17.494C62.116 16.794 62.3 16.143 62.595 15.559M44.909 21.334A95 95 0 0 1 60.24 18.728C60.815 21.617 63.367 23.801 66.422 23.801S72.031 21.617 72.606 18.728A94.6 94.6 0 0 1 87.936 21.334V24.781H44.909zM11.226 61.146C27.196 53.314 34.736 41.749 37.809 35.552A1 1 0 0 1 39.601 36.44C36.415 42.864 28.606 54.848 12.107 62.942A0.997 0.997 0 0 1 10.77 62.485 1 1 0 0 1 11.226 61.146M39.69 71.693C39.055 72.193 23.996 83.935 11.667 83.935A1 1 0 1 1 11.667 81.935C23.301 81.935 38.303 70.24 38.453 70.121A1 1 0 1 1 39.69 71.693M46.346 78.277H87.164L86.51 80.715H47zM48.419 86.012L47.75 83.516H85.759L85.089 86.012zM88.935 68.709H75.229V71.529H88.973L87.914 75.476H45.596L44.538 71.529H57.199V68.709H43.909C42.809 68.709 41.909 67.811 41.909 66.709V50.696H59.636V47.795H41.909V29.781C41.909 28.681 42.809 27.781 43.909 27.781H88.935C90.035 27.781 90.935 28.681 90.935 29.781V47.795H73.229V50.696H90.934V66.709C90.935 67.811 90.034 68.709 88.935 68.709" data-fill-palette-color="accent"></path></svg></g></svg></g><g></g></svg></g><defs></defs></svg><rect width="395.52" height="257.58184897428725" fill="none" stroke="none" visibility="hidden"></rect></g></svg></g></svg>